<svg width="17" height="29" viewBox="0 0 17 29" fill="none" xmlns="http://www.w3.org/2000/svg">
<path d="M15.9867 1.12797C14.6417 0.985291 13.2899 0.915856 11.9373 0.919973C7.45334 0.919973 4.66667 3.77597 4.66667 8.37331V11.4946H0.900004C0.723193 11.4946 0.553623 11.5649 0.428599 11.6899C0.303575 11.8149 0.233337 11.9845 0.233337 12.1613V17.2946C0.233337 17.4714 0.303575 17.641 0.428599 17.766C0.553623 17.8911 0.723193 17.9613 0.900004 17.9613H4.66667V28.2546C4.66667 28.4314 4.73691 28.601 4.86193 28.726C4.98696 28.8511 5.15653 28.9213 5.33334 28.9213H10.6373C10.8141 28.9213 10.9837 28.8511 11.1087 28.726C11.2338 28.601 11.304 28.4314 11.304 28.2546V17.9613H15.0587C15.2205 17.9614 15.3769 17.9026 15.4986 17.7959C15.6203 17.6891 15.699 17.5418 15.72 17.3813L16.3827 12.248C16.395 12.1539 16.3871 12.0582 16.3595 11.9675C16.3319 11.8767 16.2853 11.7928 16.2227 11.7215C16.1601 11.6502 16.083 11.593 15.9965 11.5539C15.91 11.5148 15.8162 11.4946 15.7213 11.4946H11.304V8.88264C11.304 7.58931 11.564 7.04931 13.1813 7.04931H15.9C16.0768 7.04931 16.2464 6.97907 16.3714 6.85404C16.4964 6.72902 16.5667 6.55945 16.5667 6.38264V1.78931C16.5667 1.62745 16.5079 1.47109 16.4012 1.34941C16.2945 1.22772 16.1472 1.14901 15.9867 1.12797ZM15.2333 5.71464L13.18 5.71597C10.304 5.71597 9.97067 7.52397 9.97067 8.88264V12.1626C9.97067 12.3392 10.0407 12.5086 10.1655 12.6336C10.2902 12.7586 10.4594 12.829 10.636 12.8293H14.964L14.472 16.6293H10.6373C10.4605 16.6293 10.291 16.6995 10.1659 16.8246C10.0409 16.9496 9.97067 17.1192 9.97067 17.296V27.5866H6V17.296C6 17.1192 5.92977 16.9496 5.80474 16.8246C5.67972 16.6995 5.51015 16.6293 5.33334 16.6293H1.568V12.8293H5.33334C5.51015 12.8293 5.67972 12.7591 5.80474 12.634C5.92977 12.509 6 12.3394 6 12.1626V8.37331C6 4.54131 8.22 2.25331 11.9373 2.25331C13.2827 2.25331 14.4973 2.32664 15.2333 2.39064V5.71464Z" fill="#011C44"/>
</svg>
