<svg xmlns="http://www.w3.org/2000/svg" width="48" height="48" fill="none" viewBox="0 0 48 48">
  <path fill="#2B7FFF" d="M44.531 15.49a2.532 2.532 0 0 0-1.325-.638 2.428 2.428 0 0 0-1.431.225l-9.469 4.62a.334.334 0 0 1-.275.03.348.348 0 0 1-.124-.074.388.388 0 0 1-.088-.121L26.288 8.6a2.765 2.765 0 0 0-.958-1.092 2.43 2.43 0 0 0-1.33-.4 2.43 2.43 0 0 0-1.33.4c-.403.264-.733.64-.958 1.093l-5.53 10.93a.387.387 0 0 1-.089.122.348.348 0 0 1-.124.074.326.326 0 0 1-.275-.03l-9.469-4.62a2.411 2.411 0 0 0-1.43-.233 2.513 2.513 0 0 0-1.324.635 2.91 2.91 0 0 0-.82 1.31 3.164 3.164 0 0 0-.064 1.588L7.37 40.714c.08.377.23.733.44 1.045.21.312.474.574.778.77.401.27.862.412 1.332.412.24-.002.48-.037.712-.103a45.837 45.837 0 0 1 26.719-.02c.341.108.699.139 1.051.09a2.45 2.45 0 0 0 .999-.37c.307-.197.574-.46.785-.773.212-.314.364-.671.446-1.051l4.763-22.337a3.118 3.118 0 0 0-.052-1.581 2.87 2.87 0 0 0-.81-1.307ZM43.22 17.8l-4.782 22.336a.477.477 0 0 1-.168.268.43.43 0 0 1-.3.042 47.875 47.875 0 0 0-27.938 0 .342.342 0 0 1-.295-.043.391.391 0 0 1-.112-.114.434.434 0 0 1-.062-.153L4.782 17.8a.475.475 0 0 1 .078-.353.403.403 0 0 1 .132-.117.367.367 0 0 1 .164-.045l.15.041 9.488 4.64a2.388 2.388 0 0 0 1.898.105 2.689 2.689 0 0 0 1.458-1.342l5.531-10.931a.381.381 0 0 1 .132-.158.333.333 0 0 1 .374 0 .38.38 0 0 1 .132.158l5.531 10.931a2.689 2.689 0 0 0 1.458 1.342c.622.23 1.3.192 1.898-.104l9.488-4.641a.344.344 0 0 1 .393.062.415.415 0 0 1 .12.185.451.451 0 0 1 .012.227ZM31.125 33.473a1.304 1.304 0 0 1-.371.791c-.207.205-.475.32-.754.323h-.113a53.518 53.518 0 0 0-11.774 0 1.055 1.055 0 0 1-.824-.266 1.274 1.274 0 0 1-.414-.827 1.346 1.346 0 0 1 .254-.908 1.12 1.12 0 0 1 .758-.453 52.694 52.694 0 0 1 12.226 0c.293.036.562.196.751.446.189.25.282.57.261.894Z"/>
</svg>
