<svg xmlns="http://www.w3.org/2000/svg" width="48" height="48" fill="none" viewBox="0 0 48 48">
  <path fill="#2B7FFF" d="M24.091 2.1c-1.575 0-3.045.717-4.3 1.891-1.253 1.175-2.326 2.81-3.22 4.792-.188.415-.367.847-.539 1.292a24.869 24.869 0 0 0-1.39-.18 20.902 20.902 0 0 0-1.581-.1c-1.54-.037-2.947.12-4.18.493-1.644.499-3 1.414-3.788 2.778-.787 1.364-.902 2.997-.511 4.67.39 1.673 1.27 3.42 2.539 5.186.266.37.55.742.85 1.113-.293.363-.576.733-.849 1.112-1.269 1.765-2.149 3.513-2.54 5.186-.39 1.673-.275 3.306.512 4.67.788 1.363 2.144 2.279 3.788 2.777 1.645.499 3.598.61 5.761.394a24.87 24.87 0 0 0 1.389-.18c.167.436.346.868.538 1.294.895 1.982 1.968 3.617 3.222 4.792 1.253 1.174 2.725 1.892 4.3 1.892 1.574 0 3.046-.718 4.3-1.892 1.253-1.175 2.326-2.81 3.22-4.792.193-.426.372-.858.54-1.294.47.074.933.135 1.386.18 2.164.216 4.117.105 5.761-.394 1.645-.498 3.001-1.414 3.788-2.778.788-1.364.902-2.996.512-4.67-.39-1.672-1.27-3.42-2.54-5.185a22.84 22.84 0 0 0-.85-1.112c.295-.363.579-.734.852-1.113 1.269-1.766 2.149-3.513 2.54-5.186.39-1.673.275-3.306-.512-4.67-.788-1.364-2.145-2.28-3.789-2.778-1.233-.373-2.64-.53-4.179-.493a20.39 20.39 0 0 0-1.582.1c-.453.045-.917.106-1.389.18a24.9 24.9 0 0 0-.538-1.292c-.894-1.982-1.967-3.617-3.221-4.792-1.254-1.174-2.725-1.892-4.3-1.892Zm0 1.751c1.051 0 2.081.462 3.102 1.419 1.022.957 1.997 2.405 2.823 4.234.134.299.262.6.383.904-2.008.447-4.134 1.132-6.308 2.047-2.173-.915-4.3-1.6-6.307-2.046.124-.31.251-.613.383-.905.826-1.83 1.801-3.278 2.823-4.234 1.021-.957 2.051-1.419 3.102-1.419Zm-11.586 7.693a18.76 18.76 0 0 1 1.963.094c.32.032.646.073.977.12-.617 1.963-1.087 4.147-1.382 6.486-1.88 1.425-3.536 2.925-4.926 4.44a21.511 21.511 0 0 1-.593-.785c-1.172-1.63-1.938-3.199-2.256-4.562-.318-1.362-.203-2.485.322-3.395.526-.91 1.44-1.57 2.78-1.977.878-.266 1.93-.41 3.115-.42Zm23.172 0c1.184.011 2.236.155 3.115.421 1.34.406 2.254 1.067 2.78 1.977.524.91.64 2.033.322 3.395-.318 1.363-1.085 2.932-2.256 4.562-.192.266-.39.528-.593.786-1.39-1.516-3.046-3.015-4.925-4.44-.294-2.34-.765-4.524-1.383-6.486.332-.048.658-.09.977-.121a18.773 18.773 0 0 1 1.963-.094Zm-4.68.529a34.029 34.029 0 0 1 1.14 4.753 47.598 47.598 0 0 0-5.826-3.363c1.624-.606 3.2-1.07 4.686-1.39Zm-13.811 0a34.03 34.03 0 0 1 4.685 1.39 47.665 47.665 0 0 0-5.824 3.362 33.998 33.998 0 0 1 1.139-4.752Zm6.905 2.293a44.85 44.85 0 0 1 4.315 2.193c1.443.833 2.8 1.721 4.058 2.642a44.85 44.85 0 0 1 .26 4.835c0 1.665-.091 3.283-.26 4.832a44.897 44.897 0 0 1-4.057 2.641 44.867 44.867 0 0 1-4.316 2.193 44.836 44.836 0 0 1-4.316-2.193 44.853 44.853 0 0 1-4.056-2.64 44.854 44.854 0 0 1-.26-4.834c0-1.666.091-3.285.26-4.835a44.795 44.795 0 0 1 4.057-2.64 44.836 44.836 0 0 1 4.315-2.193Zm.118 2.636-5.015 3.096 5.015 3.095 5.016-3.095-5.016-3.096Zm-10.383 3.67a47.74 47.74 0 0 0 0 6.726 33.991 33.991 0 0 1-3.546-3.363 34.012 34.012 0 0 1 3.546-3.364Zm20.531 0a34.01 34.01 0 0 1 3.545 3.363 33.978 33.978 0 0 1-3.545 3.362 47.658 47.658 0 0 0 0-6.725Zm-16.293.787v6.112l5.267 3.251V24.71l-5.267-3.251Zm12.286.003-5.266 3.25v6.11l5.267-3.25v-6.11ZM9.137 25.385c1.39 1.516 3.047 3.015 4.926 4.44.294 2.34.765 4.523 1.382 6.485a20.92 20.92 0 0 1-.976.12c-1.997.2-3.74.08-5.078-.327-1.34-.406-2.254-1.067-2.78-1.977-.525-.91-.64-2.032-.322-3.395s1.084-2.932 2.256-4.562c.191-.266.389-.527.592-.784Zm29.908 0c.207.262.405.524.592.784 1.171 1.63 1.938 3.199 2.256 4.562.318 1.362.203 2.485-.323 3.395-.525.91-1.44 1.571-2.779 1.977-1.34.406-3.081.527-5.078.327-.326-.033-.65-.073-.975-.12.617-1.962 1.088-4.147 1.382-6.487C36 28.4 37.655 26.9 39.045 25.385Zm-6.908 5.858a34 34 0 0 1-1.14 4.753 34.007 34.007 0 0 1-4.686-1.39 47.698 47.698 0 0 0 5.826-3.363Zm-16.09 0a47.686 47.686 0 0 0 5.823 3.363 33.99 33.99 0 0 1-4.685 1.39 33.99 33.99 0 0 1-1.139-4.752Zm8.096.08.064.04.064-.04h-.128Zm-.052 4.291c2.174.915 4.3 1.6 6.309 2.046a22.6 22.6 0 0 1-.384.907c-.826 1.83-1.801 3.277-2.823 4.234-1.021.957-2.051 1.419-3.102 1.419-1.05 0-2.08-.462-3.101-1.419-1.021-.957-1.997-2.405-2.823-4.234-.134-.3-.262-.602-.384-.907 2.008-.446 4.134-1.131 6.308-2.046Z"/>
</svg>
